<?xml version="1.0" encoding="utf-8"?>
<!-- Created by sK1 2.0rc5 (https://sk1project.net/) -->
<svg xmlns="http://www.w3.org/2000/svg" height="1024.0px" width="1024.0px" version="1.1" xmlns:xlink="http://www.w3.org/1999/xlink" id="8d9a7892-4e45-11f1-a9f2-acb57d2b22f8">

<g>
	<path style="fill:#0050c8;" d="M 68.0,20.0 C 41.4948,20.0 20.0,41.4948 20.0,68.0 L 20.0,956.0 C 20.0,982.5052 41.4948,1004.0 68.0,1004.0 L 956.0,1004.0 C 982.5052,1004.0 1004.0,982.5052 1004.0,956.0 L 1004.0,68.0 C 1004.0,41.4948 982.5052,20.0 956.0,20.0 L 68.0,20.0 Z" />
	<path style="stroke:#ffffff;stroke-width:10.0;stroke-miterlimit:4.0;fill:none;" d="M 74.0,32.0 C 50.808,32.0 32.0,50.808 32.0,74.0 L 32.0,950.0 C 32.0,973.192 50.808,992.0 74.0,992.0 L 950.0,992.0 C 973.192,992.0 992.0,973.192 992.0,950.0 L 992.0,74.0 C 992.0,50.808 973.192,32.0 950.0,32.0 L 74.0,32.0 Z" />
	<path style="stroke:#ffffff;stroke-width:6.0;stroke-miterlimit:4.0;fill:none;" d="M 86.0,52.0 C 67.2255,52.0 52.0,67.2255 52.0,86.0 L 52.0,938.0 C 52.0,956.7745 67.2255,972.0 86.0,972.0 L 938.0,972.0 C 956.7745,972.0 972.0,956.7745 972.0,938.0 L 972.0,86.0 C 972.0,67.2255 956.7745,52.0 938.0,52.0 L 86.0,52.0 Z" />
	<path style="fill:#ffffff;" d="M 270.0,210.0 L 270.0,820.0 390.0,820.0 390.0,610.0 575.0,610.0 C 720.0,610.0 820.0,520.0 820.0,395.0 820.0,275.0 720.0,210.0 575.0,210.0 L 270.0,210.0 Z M 390.0,330.0 L 560.0,330.0 C 645.0,330.0 700.0,360.0 700.0,415.0 700.0,470.0 645.0,500.0 560.0,500.0 L 390.0,500.0 390.0,330.0 Z" />
	<path style="stroke-width:0.0;stroke:#2d2c2b;fill-rule:evenodd;stroke-miterlimit:10.433;fill:#0050c8;" d="M 41.8735,960.5869 L 41.8735,62.522 63.4337,62.522 63.4337,960.5869 41.8735,960.5869 Z" />
	<path style="stroke-width:0.0;stroke:#2d2c2b;fill-rule:evenodd;stroke-miterlimit:10.433;fill:#0050c8;" d="M 56.0057,78.7925 L 56.0057,45.6228 972.1538,45.6228 972.1538,78.7925 56.0057,78.7925 Z" />
	<path style="stroke-width:0.0;stroke:#2d2c2b;fill-rule:evenodd;stroke-miterlimit:10.433;fill:#0050c8;" d="M 959.1329,971.2113 L 959.1329,65.1807 979.8389,65.1807 979.8389,971.2113 959.1329,971.2113 Z" />
	<path style="stroke-width:0.0;stroke:#2d2c2b;fill-rule:evenodd;stroke-miterlimit:10.433;fill:#0050c8;" d="M 54.0984,978.7001 L 54.0984,956.9619 963.5435,956.9619 963.5435,978.7001 54.0984,978.7001 Z" />
</g>
</svg>